<svg xmlns="http://www.w3.org/2000/svg" version="1.1" xmlns:xlink="http://www.w3.org/1999/xlink" xmlns:svgjs="http://svgjs.com/svgjs" width="64" height="64"><svg enable-background="new 0 0 64 64" fill="#4f30b4" viewBox="0 0 64 64" xmlns="http://www.w3.org/2000/svg"><g id="SvgjsG1000"><path d="m47.58 4.42h-31.16c-6.63 0-12 5.37-12 12v31.16c0 6.63 5.37 12 12 12h31.16c6.63 0 12-5.37 12-12v-31.16c0-6.63-5.37-12-12-12zm1.03 41.99c-1.5 2.29-3.62 4.04-6.29 5.21-2.62 1.16-5.95 1.74-9.88 1.74-7.04 0-11.82-1.36-14.62-4.16-2.74-2.74-4.311-6.25-4.67-10.45-.021-.28.06-.54.239-.75.17-.2.431-.32.69-.33l11.58-.729c.51-.051.979.35 1.05.859.23 1.7.68 2.98 1.33 3.82 1.06 1.34 2.56 2 4.58 2 1.479 0 2.62-.33 3.36-.98.72-.609 1.069-1.29 1.069-2.08 0-.729-.33-1.369-1.01-1.979-.53-.47-1.95-1.21-5.78-2.05-5.56-1.25-9.43-2.9-11.859-5.011-2.5-2.17-3.78-4.979-3.78-8.35 0-2.21.649-4.32 1.92-6.29 1.28-1.95 3.21-3.5 5.729-4.6 2.471-1.08 5.86-1.641 10.091-1.641 5.21 0 9.279 1 12.08 2.99 2.869 2.04 4.59 5.28 5.13 9.62.029.29-.051.55-.23.77-.17.211-.43.351-.71.36l-11.46.66c-.51.04-.96-.32-1.05-.82-.26-1.52-.79-2.62-1.57-3.26-.79-.66-1.93-.99-3.399-.99-1.17 0-2.03.23-2.561.67-.49.41-.71.86-.71 1.42 0 .21.05.521.53.94.22.2.97.68 3.64 1.22 5.46 1.19 9.271 2.34 11.681 3.57 2.449 1.25 4.279 2.84 5.42 4.75 1.14 1.88 1.71 4.01 1.71 6.34 0 2.701-.75 5.241-2.25 7.531z"></path></g></svg><style>@media (prefers-color-scheme: light) { :root { filter: none; } }
</style></svg>